<?xml version="1.0" encoding="UTF-8" standalone="no"?>
<!DOCTYPE svg PUBLIC "-//W3C//DTD SVG 1.1//EN" "http://www.w3.org/Graphics/SVG/1.1/DTD/svg11.dtd">
<svg width="100%" height="100%" viewBox="0 0 16 16" version="1.1" xmlns="http://www.w3.org/2000/svg" xmlns:xlink="http://www.w3.org/1999/xlink" xml:space="preserve" xmlns:serif="http://www.serif.com/" style="fill-rule:evenodd;clip-rule:evenodd;stroke-linecap:round;stroke-miterlimit:1.5;">
    <g transform="matrix(0.875,0,0,0.875,1,1)">
        <path d="M-1.156,5.235L-1.156,-1.156L5.235,-1.156L2.923,1.156L1.156,1.156L1.156,2.923L-1.156,5.235ZM10.751,-1.156L17.156,-1.156L17.156,5.249L14.844,2.936L14.844,1.156L13.064,1.156L10.751,-1.156ZM17.156,7.797L17.156,8.035C16.792,7.964 16.399,8.069 16.117,8.352L14.844,9.625L14.844,6.206L16.117,7.48C16.399,7.762 16.792,7.868 17.156,7.797ZM17.156,10.583L17.156,17.156L10.583,17.156L12.896,14.844L14.844,14.844L14.844,12.896L17.156,10.583ZM5.222,17.156L-1.156,17.156L-1.156,10.778L1.156,13.091L1.156,14.844L2.909,14.844L5.222,17.156ZM1.156,6.193L1.156,9.82L-0.325,8.338C-0.519,8.144 -0.765,8.034 -1.019,8.007C-0.765,7.979 -0.519,7.869 -0.325,7.675L1.156,6.193ZM7.993,-0.644L9.794,1.156L6.193,1.156L7.993,-0.644ZM6.18,14.844L9.625,14.844L7.903,16.566L6.18,14.844Z" style="fill:rgb(106,255,124);"/>
    </g>
    <g transform="matrix(0.6,0,0,0.6,3.2,3.2)">
        <rect x="3" y="3" width="10" height="10" style="fill:rgb(106,255,124);stroke:rgb(106,255,124);stroke-width:3.37px;"/>
    </g>
</svg>
